<svg width="1080" height="1080" viewBox="0 0 1080 1080" fill="none" xmlns="http://www.w3.org/2000/svg">
<rect width="1080" height="1080" fill="#007BFF"/>
<g clip-path="url(#clip0_841_22)">
<path d="M797 283V403.733C797 470.323 742.94 524.518 676.489 524.518C592.421 524.518 524.021 593.009 524.021 677.214C524.021 743.804 469.961 798 403.511 798H283V556.482H403.511C487.561 556.482 555.926 487.956 555.926 403.733C555.926 337.16 610.004 283 676.489 283H797Z" fill="white"/>
<path d="M524.021 403.733C524.021 470.323 469.961 524.518 403.511 524.518H283V283H403.511C469.961 283 524.021 337.16 524.021 403.733Z" fill="white"/>
<path d="M797 677.214V798H676.489C610.004 798 555.926 743.804 555.926 677.214C555.926 610.624 610.004 556.482 676.489 556.482C742.975 556.482 797 610.642 797 677.214Z" fill="white"/>
</g>
<defs>
<clipPath id="clip0_841_22">
<rect width="514" height="515" fill="white" transform="translate(283 283)"/>
</clipPath>
</defs>
</svg>
