<svg width="287" height="52" viewBox="0 0 287 52" fill="none" xmlns="http://www.w3.org/2000/svg">
<path d="M52 0V12.1905C52 18.9141 46.5308 24.3863 39.8083 24.3863C31.3033 24.3863 24.3835 31.3018 24.3835 39.8042C24.3835 46.5278 18.9143 52 12.1917 52H0V27.6137H12.1917C20.6949 27.6137 27.6112 20.6946 27.6112 12.1905C27.6112 5.46859 33.0821 0 39.8083 0H52Z" fill="#007BFF"/>
<path d="M24.3835 12.1905C24.3835 18.9141 18.9143 24.3863 12.1917 24.3863H0V0H12.1917C18.9143 0 24.3835 5.46859 24.3835 12.1905Z" fill="#007BFF"/>
<path d="M52.0002 39.804V51.9998H39.8084C33.0823 51.9998 27.6113 46.5277 27.6113 39.804C27.6113 33.0803 33.0823 27.6135 39.8084 27.6135C46.5346 27.6135 52.0002 33.0821 52.0002 39.804Z" fill="#007BFF"/>
<path d="M67 43.4382V8.56177H73.3983V26.7256L71.6576 26.117L86.5711 8.56177H94.616L80.6433 25.0403L81.0197 20.5462L95.0394 43.4382H87.5121L78.1029 28.0832L73.3983 33.6541V43.4382H67Z" fill="#000C1A"/>
<path d="M105.716 44C103.929 44 102.376 43.7035 101.059 43.1105C99.7415 42.5176 98.7221 41.6749 98.0008 40.5826C97.2794 39.459 96.9187 38.1639 96.9187 36.697C96.9187 35.2926 97.2323 34.0442 97.8596 32.9519C98.4869 31.8284 99.4592 30.8921 100.776 30.143C102.094 29.394 103.756 28.8635 105.763 28.5514L114.138 27.1938V31.8752L106.94 33.0923C105.716 33.3108 104.807 33.7009 104.211 34.2627C103.615 34.8244 103.317 35.5579 103.317 36.4629C103.317 37.3368 103.646 38.039 104.305 38.5696C104.995 39.0689 105.842 39.3186 106.845 39.3186C108.131 39.3186 109.26 39.0533 110.233 38.5228C111.236 37.961 112.005 37.1964 112.538 36.2289C113.103 35.2614 113.385 34.2003 113.385 33.0455V26.4915C113.385 25.3992 112.946 24.4941 112.068 23.7763C111.221 23.0273 110.092 22.6528 108.68 22.6528C107.363 22.6528 106.187 23.0117 105.152 23.7295C104.148 24.4161 103.411 25.3368 102.941 26.4915L97.9067 24.0572C98.4085 22.7152 99.1926 21.5605 100.259 20.593C101.357 19.5943 102.643 18.814 104.117 18.2523C105.591 17.6905 107.19 17.4096 108.915 17.4096C111.017 17.4096 112.867 17.7997 114.467 18.58C116.066 19.329 117.305 20.3901 118.184 21.7633C119.093 23.1053 119.548 24.6814 119.548 26.4915V43.4382H113.714V39.0845L115.031 38.9909C114.373 40.0832 113.589 41.0039 112.679 41.7529C111.77 42.4707 110.735 43.0325 109.574 43.4382C108.414 43.8127 107.128 44 105.716 44Z" fill="#000C1A"/>
<path d="M134.983 44C132.254 44 129.87 43.3602 127.832 42.0806C125.824 40.7698 124.444 39.0065 123.692 36.7906L128.302 34.5904C128.961 36.026 129.87 37.1495 131.031 37.961C132.223 38.7724 133.54 39.1782 134.983 39.1782C136.112 39.1782 137.006 38.9285 137.664 38.4291C138.323 37.9298 138.652 37.2744 138.652 36.4629C138.652 35.9636 138.511 35.5579 138.229 35.2458C137.978 34.9025 137.617 34.6216 137.147 34.4031C136.708 34.1534 136.221 33.9506 135.688 33.7945L131.501 32.6242C129.337 32 127.69 31.0481 126.561 29.7685C125.464 28.4889 124.915 26.9753 124.915 25.2276C124.915 23.6671 125.307 22.3095 126.091 21.1547C126.906 19.9688 128.02 19.0481 129.431 18.3927C130.874 17.7373 132.521 17.4096 134.371 17.4096C136.786 17.4096 138.919 17.987 140.769 19.1417C142.62 20.2965 143.937 21.9194 144.721 24.0104L140.017 26.2107C139.577 25.0559 138.84 24.1352 137.805 23.4486C136.77 22.762 135.61 22.4187 134.324 22.4187C133.289 22.4187 132.473 22.6528 131.878 23.1209C131.282 23.5891 130.984 24.1977 130.984 24.9467C130.984 25.4148 131.109 25.8205 131.36 26.1639C131.611 26.5072 131.956 26.788 132.395 27.0065C132.866 27.225 133.399 27.4278 133.995 27.6151L138.088 28.8323C140.189 29.4564 141.804 30.3927 142.933 31.6411C144.094 32.8895 144.674 34.4187 144.674 36.2289C144.674 37.7581 144.266 39.1157 143.451 40.3017C142.635 41.4564 141.506 42.3615 140.064 43.0169C138.621 43.6723 136.927 44 134.983 44Z" fill="#000C1A"/>
<path d="M161.078 43.7191C158.192 43.7191 155.95 42.9389 154.35 41.3784C152.782 39.7867 151.998 37.5553 151.998 34.684V23.4486H147.576V17.9714H148.046C149.301 17.9714 150.273 17.6437 150.963 16.9883C151.653 16.3329 151.998 15.381 151.998 14.1326V12.1664H158.161V17.9714H164.042V23.4486H158.161V34.3563C158.161 35.199 158.302 35.9168 158.584 36.5098C158.898 37.1027 159.368 37.5553 159.996 37.8674C160.654 38.1795 161.485 38.3355 162.489 38.3355C162.709 38.3355 162.96 38.3199 163.242 38.2887C163.555 38.2575 163.853 38.2263 164.136 38.1951V43.4382C163.697 43.5007 163.195 43.5631 162.63 43.6255C162.066 43.6879 161.548 43.7191 161.078 43.7191Z" fill="#000C1A"/>
<path d="M176.515 44C174.727 44 173.175 43.7035 171.858 43.1105C170.54 42.5176 169.521 41.6749 168.8 40.5826C168.078 39.459 167.717 38.1639 167.717 36.697C167.717 35.2926 168.031 34.0442 168.658 32.9519C169.286 31.8284 170.258 30.8921 171.575 30.143C172.893 29.394 174.555 28.8635 176.562 28.5514L184.936 27.1938V31.8752L177.738 33.0923C176.515 33.3108 175.606 33.7009 175.01 34.2627C174.414 34.8244 174.116 35.5579 174.116 36.4629C174.116 37.3368 174.445 38.039 175.104 38.5696C175.794 39.0689 176.641 39.3186 177.644 39.3186C178.93 39.3186 180.059 39.0533 181.031 38.5228C182.035 37.961 182.804 37.1964 183.337 36.2289C183.901 35.2614 184.184 34.2003 184.184 33.0455V26.4915C184.184 25.3992 183.744 24.4941 182.866 23.7763C182.019 23.0273 180.89 22.6528 179.479 22.6528C178.162 22.6528 176.986 23.0117 175.951 23.7295C174.947 24.4161 174.21 25.3368 173.739 26.4915L168.705 24.0572C169.207 22.7152 169.991 21.5605 171.058 20.593C172.155 19.5943 173.441 18.814 174.916 18.2523C176.39 17.6905 177.989 17.4096 179.714 17.4096C181.816 17.4096 183.666 17.7997 185.266 18.58C186.865 19.329 188.104 20.3901 188.982 21.7633C189.892 23.1053 190.347 24.6814 190.347 26.4915V43.4382H184.513V39.0845L185.83 38.9909C185.172 40.0832 184.387 41.0039 183.478 41.7529C182.568 42.4707 181.533 43.0325 180.373 43.4382C179.212 43.8127 177.926 44 176.515 44Z" fill="#000C1A"/>
<path d="M196.043 43.4382V8H202.206V43.4382H196.043Z" fill="#000C1A"/>
<path d="M215.659 44C213.871 44 212.319 43.7035 211.001 43.1105C209.684 42.5176 208.665 41.6749 207.943 40.5826C207.222 39.459 206.861 38.1639 206.861 36.697C206.861 35.2926 207.175 34.0442 207.802 32.9519C208.429 31.8284 209.402 30.8921 210.719 30.143C212.036 29.394 213.699 28.8635 215.706 28.5514L224.08 27.1938V31.8752L216.882 33.0923C215.659 33.3108 214.749 33.7009 214.153 34.2627C213.557 34.8244 213.259 35.5579 213.259 36.4629C213.259 37.3368 213.589 38.039 214.247 38.5696C214.937 39.0689 215.784 39.3186 216.788 39.3186C218.074 39.3186 219.203 39.0533 220.175 38.5228C221.179 37.961 221.947 37.1964 222.481 36.2289C223.045 35.2614 223.327 34.2003 223.327 33.0455V26.4915C223.327 25.3992 222.888 24.4941 222.01 23.7763C221.163 23.0273 220.034 22.6528 218.623 22.6528C217.305 22.6528 216.129 23.0117 215.094 23.7295C214.091 24.4161 213.354 25.3368 212.883 26.4915L207.849 24.0572C208.351 22.7152 209.135 21.5605 210.201 20.593C211.299 19.5943 212.585 18.814 214.059 18.2523C215.533 17.6905 217.133 17.4096 218.858 17.4096C220.959 17.4096 222.81 17.7997 224.409 18.58C226.009 19.329 227.248 20.3901 228.126 21.7633C229.036 23.1053 229.49 24.6814 229.49 26.4915V43.4382H223.657V39.0845L224.974 38.9909C224.315 40.0832 223.531 41.0039 222.622 41.7529C221.712 42.4707 220.677 43.0325 219.517 43.4382C218.356 43.8127 217.07 44 215.659 44Z" fill="#000C1A"/>
<path d="M249.159 44C247.309 44 245.599 43.6411 244.031 42.9233C242.494 42.1743 241.271 41.1131 240.362 39.7399L240.973 38.5228V43.4382H235.187V8H241.35V23.0273L240.409 21.7633C241.287 20.3901 242.479 19.329 243.984 18.58C245.49 17.7997 247.23 17.4096 249.206 17.4096C251.621 17.4096 253.801 18.0026 255.746 19.1886C257.69 20.3745 259.227 21.9662 260.356 23.9636C261.517 25.961 262.097 28.2081 262.097 30.7048C262.097 33.1704 261.532 35.4174 260.403 37.446C259.274 39.4746 257.737 41.0819 255.793 42.2679C253.848 43.4226 251.637 44 249.159 44ZM248.454 38.3823C249.865 38.3823 251.12 38.0546 252.217 37.3992C253.315 36.7438 254.162 35.8388 254.758 34.684C255.385 33.5293 255.699 32.2029 255.699 30.7048C255.699 29.2068 255.385 27.896 254.758 26.7724C254.162 25.6177 253.315 24.7126 252.217 24.0572C251.12 23.3706 249.865 23.0273 248.454 23.0273C247.105 23.0273 245.882 23.355 244.784 24.0104C243.718 24.6658 242.871 25.5865 242.243 26.7724C241.648 27.9272 241.35 29.238 241.35 30.7048C241.35 32.2029 241.648 33.5293 242.243 34.684C242.871 35.8388 243.718 36.7438 244.784 37.3992C245.882 38.0546 247.105 38.3823 248.454 38.3823Z" fill="#000C1A"/>
<path d="M276.534 44C273.806 44 271.422 43.3602 269.383 42.0806C267.376 40.7698 265.996 39.0065 265.243 36.7906L269.854 34.5904C270.512 36.026 271.422 37.1495 272.582 37.961C273.774 38.7724 275.091 39.1782 276.534 39.1782C277.663 39.1782 278.557 38.9285 279.216 38.4291C279.874 37.9298 280.204 37.2744 280.204 36.4629C280.204 35.9636 280.063 35.5579 279.78 35.2458C279.529 34.9025 279.169 34.6216 278.698 34.4031C278.259 34.1534 277.773 33.9506 277.24 33.7945L273.053 32.6242C270.889 32 269.242 31.0481 268.113 29.7685C267.015 28.4889 266.466 26.9753 266.466 25.2276C266.466 23.6671 266.858 22.3095 267.642 21.1547C268.458 19.9688 269.571 19.0481 270.983 18.3927C272.426 17.7373 274.072 17.4096 275.923 17.4096C278.338 17.4096 280.47 17.987 282.321 19.1417C284.171 20.2965 285.489 21.9194 286.273 24.0104L281.568 26.2107C281.129 25.0559 280.392 24.1352 279.357 23.4486C278.322 22.762 277.161 22.4187 275.876 22.4187C274.841 22.4187 274.025 22.6528 273.429 23.1209C272.833 23.5891 272.535 24.1977 272.535 24.9467C272.535 25.4148 272.661 25.8205 272.912 26.1639C273.163 26.5072 273.508 26.788 273.947 27.0065C274.417 27.225 274.95 27.4278 275.546 27.6151L279.639 28.8323C281.741 29.4564 283.356 30.3927 284.485 31.6411C285.645 32.8895 286.226 34.4187 286.226 36.2289C286.226 37.7581 285.818 39.1157 285.002 40.3017C284.187 41.4564 283.058 42.3615 281.615 43.0169C280.172 43.6723 278.479 44 276.534 44Z" fill="#000C1A"/>
</svg>